<svg xmlns="http://www.w3.org/2000/svg" width="42" height="54" viewBox="0 0 21 27">
  <defs>
    <style>
      .cls-1 {
        fill: #fff;
        fill-rule: evenodd;
      }
    </style>
  </defs>
  <path id="Forme_67" data-name="Forme 67" class="cls-1" d="M1223.25,751h-17.51a1.8,1.8,0,0,0-1.74,1.855v23.3a1.8,1.8,0,0,0,1.74,1.855h17.51a1.8,1.8,0,0,0,1.75-1.855v-23.3A1.8,1.8,0,0,0,1223.25,751Zm-6.41,7.155a0.654,0.654,0,0,1,.63-0.677h4.42a0.656,0.656,0,0,1,.64.677v0.389a0.655,0.655,0,0,1-.64.676h-4.42a0.653,0.653,0,0,1-.63-0.676v-0.389Zm-10.46-3.337v-0.39a0.653,0.653,0,0,1,.63-0.676h7.9a0.654,0.654,0,0,1,.63.676v7.843a0.654,0.654,0,0,1-.63.676h-7.9a0.654,0.654,0,0,1-.63-0.676v-7.453h0Zm0,14.7a0.653,0.653,0,0,1,.63-0.677h14.88a0.655,0.655,0,0,1,.64.677V769.9a0.654,0.654,0,0,1-.64.676h-14.88a0.652,0.652,0,0,1-.63-0.676v-0.389Zm16.21,4.116a0.653,0.653,0,0,1-.63.676h-14.95a0.653,0.653,0,0,1-.63-0.676v-0.39a0.653,0.653,0,0,1,.63-0.676h14.95a0.653,0.653,0,0,1,.63.676v0.39Zm0-7.453a0.652,0.652,0,0,1-.63.675h-14.95a0.652,0.652,0,0,1-.63-0.675v-0.389a0.652,0.652,0,0,1,.63-0.676h14.95a0.652,0.652,0,0,1,.63.676v0.389Zm0-3.908a0.654,0.654,0,0,1-.63.676h-4.49a0.654,0.654,0,0,1-.63-0.676v-0.389a0.653,0.653,0,0,1,.63-0.677h4.49a0.653,0.653,0,0,1,.63.677v0.389Zm0-7.453a0.653,0.653,0,0,1-.63.676h-4.49a0.653,0.653,0,0,1-.63-0.676v-0.39a0.653,0.653,0,0,1,.63-0.676h4.49a0.653,0.653,0,0,1,.63.676v0.39Z" transform="translate(-1204 -751)"/>
</svg>
