<svg xmlns="http://www.w3.org/2000/svg" width="69.94" height="70" viewBox="0 0 34.97 35">
  <defs>
    <style>
      .cls-1 {
        fill: #fff;
        fill-rule: evenodd;
      }
    </style>
  </defs>
  <path id="ico-cklcik" class="cls-1" d="M1119.49,118.5a0.836,0.836,0,0,1-.83-0.83v-6.843a0.83,0.83,0,0,1,1.66,0v6.843A0.83,0.83,0,0,1,1119.49,118.5Zm12.68,5.682h-6.86a0.83,0.83,0,1,1,0-1.659h6.86A0.83,0.83,0,1,1,1132.17,124.179Zm-6.82-5.433a0.821,0.821,0,0,1-1.16-1.162l2.2-2.2a0.8,0.8,0,0,1,1.16,0,0.789,0.789,0,0,1,0,1.162Zm-10.93.29a0.837,0.837,0,0,1-.58-0.249l-2.2-2.2a0.821,0.821,0,0,1,1.16-1.161l2.21,2.2a0.8,0.8,0,0,1,0,1.161A0.842,0.842,0,0,1,1114.42,119.036Zm9.81,8.958a0.8,0.8,0,0,1,1.16,0l2.21,2.2a0.8,0.8,0,0,1,0,1.161,0.814,0.814,0,0,1-1.17,0l-2.2-2.2A0.805,0.805,0,0,1,1124.23,127.994Zm-8.89,13.23a0.806,0.806,0,0,1-.83-0.456l-2.7-5.1-9.1,9.083a0.814,0.814,0,0,1-1.17,0l-3.28-3.277a0.8,0.8,0,0,1,0-1.161l9.18-9.083-5.15-2.654a0.882,0.882,0,0,1-.46-0.83,0.866,0.866,0,0,1,.59-0.7l17.41-4.894a0.892,0.892,0,0,1,.83.207,0.81,0.81,0,0,1,.2.788l-4.77,17.46A0.91,0.91,0,0,1,1115.34,141.224Zm-10.43-13.188,4.28,2.2a0.817,0.817,0,0,1,.46.622,0.746,0.746,0,0,1-.25.705l-9.31,9.332,2.08,2.073,9.3-9.29a0.842,0.842,0,0,1,.59-0.249h0.12a0.857,0.857,0,0,1,.62.457l2.25,4.23,3.82-14.018Z" transform="translate(-1098.03 -110)"/>
</svg>
