<svg xmlns="http://www.w3.org/2000/svg" width="26" height="34" viewBox="0 0 26 34">
  <defs>
    <style>
      .cls-1 {
        fill: #fff;
        fill-rule: evenodd;
      }
    </style>
  </defs>
  <path id="ico-calc" class="cls-1" d="M456.111,797H435.889A2.865,2.865,0,0,1,433,794.167V765.833A2.865,2.865,0,0,1,435.889,763h20.222A2.865,2.865,0,0,1,459,765.833v28.334A2.865,2.865,0,0,1,456.111,797Zm-20.222-32.583a1.432,1.432,0,0,0-1.445,1.416v28.334a1.432,1.432,0,0,0,1.445,1.416h20.222a1.432,1.432,0,0,0,1.445-1.416V765.833a1.432,1.432,0,0,0-1.445-1.416H435.889Zm18.055,9.916H438.056a1.432,1.432,0,0,1-1.445-1.416v-4.959a1.432,1.432,0,0,1,1.445-1.416h15.888a1.432,1.432,0,0,1,1.445,1.416v4.959A1.432,1.432,0,0,1,453.944,774.333Zm-15.888-6.375v4.959h15.889v-4.959H438.056Zm1.444,12.75a2.125,2.125,0,1,1,2.166-2.125A2.148,2.148,0,0,1,439.5,780.708Zm0-2.833a0.709,0.709,0,1,0,.722.708A0.716,0.716,0,0,0,439.5,777.875Zm13,2.833a2.125,2.125,0,1,1,2.166-2.125A2.148,2.148,0,0,1,452.5,780.708Zm0-2.833a0.709,0.709,0,1,0,.722.708A0.716,0.716,0,0,0,452.5,777.875Zm-6.5,2.833a2.125,2.125,0,1,1,2.167-2.125A2.148,2.148,0,0,1,446,780.708Zm0-2.833a0.709,0.709,0,1,0,.722.708A0.716,0.716,0,0,0,446,777.875Zm-6.5,9.208a2.125,2.125,0,1,1,2.166-2.125A2.148,2.148,0,0,1,439.5,787.083Zm0-2.833a0.709,0.709,0,1,0,.722.708A0.716,0.716,0,0,0,439.5,784.25Zm13,2.833a2.125,2.125,0,1,1,2.166-2.125A2.148,2.148,0,0,1,452.5,787.083Zm0-2.833a0.709,0.709,0,1,0,.722.708A0.716,0.716,0,0,0,452.5,784.25Zm-6.5,2.833a2.125,2.125,0,1,1,2.167-2.125A2.148,2.148,0,0,1,446,787.083Zm0-2.833a0.709,0.709,0,1,0,.722.708A0.716,0.716,0,0,0,446,784.25Zm-6.5,9.208a2.125,2.125,0,1,1,2.166-2.125A2.148,2.148,0,0,1,439.5,793.458Zm0-2.833a0.709,0.709,0,1,0,.722.708A0.716,0.716,0,0,0,439.5,790.625Zm13,2.833a2.125,2.125,0,1,1,2.166-2.125A2.148,2.148,0,0,1,452.5,793.458Zm0-2.833a0.709,0.709,0,1,0,.722.708A0.716,0.716,0,0,0,452.5,790.625Zm-6.5,2.833a2.125,2.125,0,1,1,2.167-2.125A2.148,2.148,0,0,1,446,793.458Zm0-2.833a0.709,0.709,0,1,0,.722.708A0.716,0.716,0,0,0,446,790.625Z" transform="translate(-433 -763)"/>
</svg>
