<svg xmlns="http://www.w3.org/2000/svg" width="68" height="72" viewBox="0 0 34 36">
  <defs>
    <style>
      .cls-1 {
        fill: #fff;
        fill-rule: evenodd;
      }
    </style>
  </defs>
  <path id="Forme_65" data-name="Forme 65" class="cls-1" d="M831,744a0.932,0.932,0,0,0-.85.837v2.512a0.85,0.85,0,0,0,1.7,0v-2.512A0.881,0.881,0,0,0,831,744Zm11.475,5a0.93,0.93,0,0,0-.106.013,0.868,0.868,0,0,0-.492.249l-1.7,1.674a0.862,0.862,0,0,0-.018,1.2,0.9,0.9,0,0,0,1.214,0l1.7-1.675a0.85,0.85,0,0,0,.211-0.929A0.874,0.874,0,0,0,842.475,749Zm-23.043.013a0.868,0.868,0,0,0-.721.56,0.847,0.847,0,0,0,.216.879l1.7,1.675a0.9,0.9,0,0,0,1.214,0,0.862,0.862,0,0,0-.018-1.2l-1.7-1.674A0.872,0.872,0,0,0,819.432,749.01ZM831,751.535a9.342,9.342,0,0,0-9.35,9.209c0,6.582,4.509,7.554,5.047,11.721H835.3c0.538-4.167,5.047-5.139,5.047-11.721A9.342,9.342,0,0,0,831,751.535Zm12.325,9.628a0.909,0.909,0,0,0,.85.837h2.975a0.837,0.837,0,1,0,0-1.674h-2.975A0.875,0.875,0,0,0,843.325,761.163Zm-29.325,0a0.91,0.91,0,0,0,.85.837h2.55a0.837,0.837,0,1,0,0-1.674h-2.55A0.876,0.876,0,0,0,814,761.163Zm7.756,8.137a0.863,0.863,0,0,0-.584.261l-2.191,2.146a0.86,0.86,0,0,0-.019,1.2,0.894,0.894,0,0,0,1.214,0l2.191-2.159a0.848,0.848,0,0,0,.194-0.924A0.872,0.872,0,0,0,821.756,769.3Zm18.382,0a0.869,0.869,0,0,0-.722.559,0.848,0.848,0,0,0,.217.879l2.191,2.159a0.894,0.894,0,0,0,1.214,0,0.861,0.861,0,0,0-.018-1.2l-2.192-2.146a0.865,0.865,0,0,0-.611-0.261A0.521,0.521,0,0,0,840.138,769.3Zm-13.388,4.84v4.186a1.689,1.689,0,0,0,1.7,1.674h5.1a1.689,1.689,0,0,0,1.7-1.674V774.14h-8.5Z" transform="translate(-814 -744)"/>
</svg>
