<svg xmlns="http://www.w3.org/2000/svg" width="32" height="37" viewBox="0 0 32 37">
  <defs>
    <style>
      .cls-1 {
        fill: #fff;
        fill-rule: evenodd;
      }
    </style>
  </defs>
  <path id="ico-lamp" class="cls-1" d="M831,760a0.758,0.758,0,0,0-.762.755v3.021a0.762,0.762,0,0,0,1.524,0v-3.021A0.758,0.758,0,0,0,831,760Zm-10.774,4.424a0.759,0.759,0,0,0-.536.225,0.743,0.743,0,0,0,0,1.061l2.155,2.136a0.76,0.76,0,0,0,1.072,0,0.744,0.744,0,0,0,0-1.062l-2.155-2.135A0.759,0.759,0,0,0,820.226,764.424Zm21.548,0a0.759,0.759,0,0,0-.536.225l-2.155,2.135a0.744,0.744,0,0,0,0,1.062,0.76,0.76,0,0,0,1.072,0l2.155-2.136a0.743,0.743,0,0,0,0-1.061A0.759,0.759,0,0,0,841.774,764.424ZM831,766.041c-5.04,0-9.9,3.883-9.9,9.38a12.008,12.008,0,0,0,2.619,7.433c1.258,1.763,2.334,3.059,2.334,5.085v4.53a2.287,2.287,0,0,0,2.285,2.266h0.381a2.286,2.286,0,0,0,4.572,0h0.381a2.287,2.287,0,0,0,2.285-2.266v-4.53c0-2.026,1.076-3.322,2.334-5.085a12.008,12.008,0,0,0,2.619-7.433C840.905,769.924,836.04,766.041,831,766.041Zm0,1.51c4.252,0,8.381,3.261,8.381,7.87a10.251,10.251,0,0,1-2.333,6.56c-1.1,1.534-2.33,3.053-2.572,5.2h-6.952c-0.242-2.15-1.477-3.669-2.572-5.2a10.251,10.251,0,0,1-2.333-6.56C822.619,770.812,826.748,767.551,831,767.551Zm-0.845,1.18a7.209,7.209,0,0,0-6.393,7.126,7.077,7.077,0,0,0,.321,2.1,0.761,0.761,0,1,0,1.453-.436,5.613,5.613,0,0,1-.25-1.664,5.671,5.671,0,0,1,5.035-5.628,0.789,0.789,0,0,0,.7-0.814A0.729,0.729,0,0,0,830.155,768.731ZM815.762,775.1a0.755,0.755,0,1,0,0,1.51h3.048a0.755,0.755,0,1,0,0-1.51h-3.048Zm27.428,0a0.755,0.755,0,1,0,0,1.51h3.048a0.755,0.755,0,1,0,0-1.51H843.19Zm-15.619,13.592h6.858v1.51h-6.858v-1.51Zm0,3.02h6.858v0.755a0.752,0.752,0,0,1-.762.755h-5.334a0.752,0.752,0,0,1-.762-0.755v-0.755Zm2.667,3.021h1.524A0.762,0.762,0,0,1,830.238,794.735Z" transform="translate(-815 -760)"/>
</svg>
