<svg xmlns="http://www.w3.org/2000/svg" width="44" height="62" viewBox="0 0 22 31">
  <defs>
    <style>
      .cls-1 {
        fill: #fff;
        fill-rule: evenodd;
      }
    </style>
  </defs>
  <path id="Forme_63" data-name="Forme 63" class="cls-1" d="M454.036,749H437.958a2.99,2.99,0,0,0-2.961,3.01V776.99a2.99,2.99,0,0,0,2.961,3.01h16.078A2.99,2.99,0,0,0,457,776.99V752.008A2.99,2.99,0,0,0,454.036,749Zm-13.285,26.979a2.06,2.06,0,1,1,2.028-2.06A2.043,2.043,0,0,1,440.751,775.977Zm0-5.4a2.06,2.06,0,1,1,2.028-2.059A2.043,2.043,0,0,1,440.751,770.581Zm0-5.395a2.061,2.061,0,1,1,2.028-2.06A2.044,2.044,0,0,1,440.751,765.186ZM446,775.977a2.06,2.06,0,1,1,2.028-2.06A2.044,2.044,0,0,1,446,775.977Zm0-5.4a2.06,2.06,0,1,1,2.028-2.059A2.044,2.044,0,0,1,446,770.581Zm0-5.395a2.061,2.061,0,1,1,2.028-2.06A2.044,2.044,0,0,1,446,765.186Zm5.247,10.791a2.06,2.06,0,1,1,2.027-2.06A2.044,2.044,0,0,1,451.244,775.977Zm0-5.4a2.06,2.06,0,1,1,2.027-2.059A2.044,2.044,0,0,1,451.244,770.581Zm0-5.395a2.061,2.061,0,1,1,2.027-2.06A2.045,2.045,0,0,1,451.244,765.186Zm2.027-9.109a1.762,1.762,0,0,1-1.748,1.776H440.471a1.761,1.761,0,0,1-1.747-1.776V754.46a1.761,1.761,0,0,1,1.747-1.776h11.052a1.762,1.762,0,0,1,1.748,1.776v1.617Z" transform="translate(-435 -749)"/>
</svg>
