<svg xmlns="http://www.w3.org/2000/svg" width="52" height="52" viewBox="0 0 26 26">
  <defs>
    <style>
      .cls-1 {
        fill: #fff;
        fill-rule: evenodd;
      }
    </style>
  </defs>
  <path id="Forme_66" data-name="Forme 66" class="cls-1" d="M1028.2,768.332a5.2,5.2,0,0,1,4.55,5.168,5.025,5.025,0,0,1-.55,2.307l3.8,1.593V757.25l-7.8-3.25v14.332Zm-5.85,5.168a5.2,5.2,0,0,1,4.55-5.168V754l-7.8,3.25V777.4l3.8-1.593A4.9,4.9,0,0,1,1022.35,773.5Zm-4.55-16.25L1010,754v20.15l7.8,3.25V757.25Zm9.75,12.35a3.908,3.908,0,0,0-3.9,3.9,4.05,4.05,0,0,0,.68,2.21l3.22,4.29,3.22-4.29a3.967,3.967,0,0,0,.68-2.21A3.915,3.915,0,0,0,1027.55,769.6Zm0,5.85a1.95,1.95,0,1,1,1.95-1.95A1.957,1.957,0,0,1,1027.55,775.45Z" transform="translate(-1010 -754)"/>
</svg>
