<svg xmlns="http://www.w3.org/2000/svg" width="84" height="50" viewBox="0 0 42 25">
  <defs>
    <style>
      .cls-1 {
        fill: #fff;
        fill-rule: evenodd;
      }
    </style>
  </defs>
  <path id="Forme_64" data-name="Forme 64" class="cls-1" d="M647.253,773.526a6.807,6.807,0,0,0-3.758-3.015,15.929,15.929,0,0,0-9,0,6.838,6.838,0,0,0-3.759,3.015,5.682,5.682,0,0,0-.6,2.4c0,0.165,0,.356,0,0.546v0.338a2.023,2.023,0,0,0,1.816,2.181h14.077a2.023,2.023,0,0,0,1.815-2.181v-0.338c0-.19,0-0.381,0-0.546a5.661,5.661,0,0,0-.594-2.4m-13.221-11.937c0,2.795,1.721,6.9,4.963,6.9,3.185,0,4.961-4.105,4.961-6.9a4.963,4.963,0,1,0-9.924,0m-0.511,7.643a6.169,6.169,0,0,0-3.044-2.16,14.9,14.9,0,0,0-8.412,0,6.394,6.394,0,0,0-3.513,2.817,5.334,5.334,0,0,0-.557,2.247c0,0.155,0,.332,0,0.51v0.315a1.891,1.891,0,0,0,1.7,2.039h8.5a5.8,5.8,0,0,1,.641-1.973A8.678,8.678,0,0,1,633.521,769.232Zm-7.25-4.051c2.977,0,4.636-3.837,4.636-6.447a4.638,4.638,0,1,0-9.274,0C621.633,761.345,623.241,765.181,626.271,765.181Zm18.211,4.051a6.169,6.169,0,0,1,3.044-2.16,14.9,14.9,0,0,1,8.412,0,6.394,6.394,0,0,1,3.513,2.817,5.319,5.319,0,0,1,.557,2.247c0,0.155,0,.332,0,0.51v0.315a1.891,1.891,0,0,1-1.7,2.039h-8.5a5.776,5.776,0,0,0-.642-1.973A8.678,8.678,0,0,0,644.482,769.232Zm7.25-4.051c-2.977,0-4.636-3.837-4.636-6.447a4.638,4.638,0,1,1,9.274,0C656.37,761.345,654.762,765.181,651.732,765.181Z" transform="translate(-618 -754)"/>
</svg>
