<svg xmlns="http://www.w3.org/2000/svg" width="25" height="25" viewBox="0 0 25 25">
  <defs>
    <style>
      .cls-1 {
        fill: #fff;
        fill-rule: evenodd;
      }
    </style>
  </defs>
  <path id="ico-photos" class="cls-1" d="M7.778,12.25A3.472,3.472,0,1,1,11.25,8.778,3.476,3.476,0,0,1,7.778,12.25Zm0-5.556A2.083,2.083,0,1,0,9.861,8.778,2.086,2.086,0,0,0,7.778,6.694ZM22.528,27H4.472A3.476,3.476,0,0,1,1,23.528V5.472A3.476,3.476,0,0,1,4.472,2H22.528A3.476,3.476,0,0,1,26,5.472V23.528A3.476,3.476,0,0,1,22.528,27ZM4.472,3.389A2.086,2.086,0,0,0,2.389,5.472V23.528a2.086,2.086,0,0,0,2.083,2.083H22.528a2.086,2.086,0,0,0,2.083-2.083V5.472a2.086,2.086,0,0,0-2.083-2.083H4.472ZM11.207,26.8l-0.97-.993,8.34-8.136,6.543,7.054-1.017.944-5.575-6.009Zm-6.965.02L3.314,25.789l7.25-6.5,3.428,3.427-0.982.982-2.5-2.5Z" transform="translate(-1 -2)"/>
</svg>
